<svg xmlns="http://www.w3.org/2000/svg" width="760" height="360" viewBox="0 0 760 360">
  <rect x="0" y="0" width="100%" height="100%" fill="white" />
  <text x="380" y="28" font-size="22" text-anchor="middle" fill="#111827">PoC Survival vs. Route Information Gain</text>
  <text x="380" y="48" font-size="12" text-anchor="middle" fill="#4B5563">Posterior survival score on x-axis; information-gain score on y-axis</text>

  <line x1="90" y1="60" x2="90" y2="300" stroke="#374151" stroke-width="2" />
  <line x1="90" y1="300" x2="700" y2="300" stroke="#374151" stroke-width="2" />

  <line x1="90" y1="300" x2="90" y2="308" stroke="#374151" stroke-width="1" />
  <text x="90" y="324" font-size="12" text-anchor="middle" fill="#374151">0.0</text>
  <line x1="90" y1="60" x2="90" y2="300" stroke="#E5E7EB" stroke-width="1" />
  <line x1="82" y1="300" x2="90" y2="300" stroke="#374151" stroke-width="1" />
  <text x="74" y="305" font-size="12" text-anchor="end" fill="#374151">0.0</text>
  <line x1="90" y1="300" x2="700" y2="300" stroke="#E5E7EB" stroke-width="1" />

  <line x1="212" y1="300" x2="212" y2="308" stroke="#374151" stroke-width="1" />
  <text x="212" y="324" font-size="12" text-anchor="middle" fill="#374151">0.2</text>
  <line x1="212" y1="60" x2="212" y2="300" stroke="#E5E7EB" stroke-width="1" />
  <line x1="82" y1="252" x2="90" y2="252" stroke="#374151" stroke-width="1" />
  <text x="74" y="257" font-size="12" text-anchor="end" fill="#374151">0.2</text>
  <line x1="90" y1="252" x2="700" y2="252" stroke="#E5E7EB" stroke-width="1" />

  <line x1="334" y1="300" x2="334" y2="308" stroke="#374151" stroke-width="1" />
  <text x="334" y="324" font-size="12" text-anchor="middle" fill="#374151">0.4</text>
  <line x1="334" y1="60" x2="334" y2="300" stroke="#E5E7EB" stroke-width="1" />
  <line x1="82" y1="204" x2="90" y2="204" stroke="#374151" stroke-width="1" />
  <text x="74" y="209" font-size="12" text-anchor="end" fill="#374151">0.4</text>
  <line x1="90" y1="204" x2="700" y2="204" stroke="#E5E7EB" stroke-width="1" />

  <line x1="456" y1="300" x2="456" y2="308" stroke="#374151" stroke-width="1" />
  <text x="456" y="324" font-size="12" text-anchor="middle" fill="#374151">0.6</text>
  <line x1="456" y1="60" x2="456" y2="300" stroke="#E5E7EB" stroke-width="1" />
  <line x1="82" y1="156" x2="90" y2="156" stroke="#374151" stroke-width="1" />
  <text x="74" y="161" font-size="12" text-anchor="end" fill="#374151">0.6</text>
  <line x1="90" y1="156" x2="700" y2="156" stroke="#E5E7EB" stroke-width="1" />

  <line x1="578" y1="300" x2="578" y2="308" stroke="#374151" stroke-width="1" />
  <text x="578" y="324" font-size="12" text-anchor="middle" fill="#374151">0.8</text>
  <line x1="578" y1="60" x2="578" y2="300" stroke="#E5E7EB" stroke-width="1" />
  <line x1="82" y1="108" x2="90" y2="108" stroke="#374151" stroke-width="1" />
  <text x="74" y="113" font-size="12" text-anchor="end" fill="#374151">0.8</text>
  <line x1="90" y1="108" x2="700" y2="108" stroke="#E5E7EB" stroke-width="1" />

  <line x1="700" y1="300" x2="700" y2="308" stroke="#374151" stroke-width="1" />
  <text x="700" y="324" font-size="12" text-anchor="middle" fill="#374151">1.0</text>
  <line x1="700" y1="60" x2="700" y2="300" stroke="#E5E7EB" stroke-width="1" />
  <line x1="82" y1="60" x2="90" y2="60" stroke="#374151" stroke-width="1" />
  <text x="74" y="65" font-size="12" text-anchor="end" fill="#374151">1.0</text>
  <line x1="90" y1="60" x2="700" y2="60" stroke="#E5E7EB" stroke-width="1" />

  <circle cx="461" cy="135" r="7" fill="#10B981" stroke="#1F2937" stroke-width="1.5" />
  <text x="471" y="127" font-size="12" fill="#111827">Mc-290</text>

  <circle cx="485" cy="146" r="7" fill="#10B981" stroke="#1F2937" stroke-width="1.5" />
  <text x="495" y="138" font-size="12" fill="#111827">Mc-291</text>

  <circle cx="236" cy="187" r="7" fill="#10B981" stroke="#1F2937" stroke-width="1.5" />
  <text x="246" y="179" font-size="12" fill="#111827">Lv-292</text>

  <text x="395" y="346" font-size="14" text-anchor="middle" fill="#111827">Posterior survival score</text>
  <text x="26" y="180" font-size="14" transform="rotate(-90 26,180)" text-anchor="middle" fill="#111827">Information-gain score</text>
</svg>
